<svg width="4" height="4" viewBox="0 0 4 4" fill="none" xmlns="http://www.w3.org/2000/svg">
<g clip-path="url(#clip0_13_2)">
<path d="M1.87497 0.75C1.84182 0.75 1.81003 0.73683 1.78659 0.713388C1.76314 0.689946 1.74997 0.658152 1.74997 0.625C1.74997 0.591848 1.76314 0.560054 1.78659 0.536612C1.81003 0.51317 1.84182 0.5 1.87497 0.5H3.37497C3.40813 0.5 3.43992 0.51317 3.46336 0.536612C3.48681 0.560054 3.49997 0.591848 3.49997 0.625V2.125C3.49997 2.15815 3.48681 2.18995 3.46336 2.21339C3.43992 2.23683 3.40813 2.25 3.37497 2.25C3.34182 2.25 3.31003 2.23683 3.28659 2.21339C3.26314 2.18995 3.24997 2.15815 3.24997 2.125V0.92675L0.713475 3.4635C0.690003 3.48697 0.658169 3.50016 0.624975 3.50016C0.591781 3.50016 0.559946 3.48697 0.536475 3.4635C0.513003 3.44003 0.499817 3.40819 0.499817 3.375C0.499817 3.34181 0.513003 3.30997 0.536475 3.2865L3.07322 0.75H1.87497Z" fill="#E31E24"/>
</g>
<defs>
<clipPath id="clip0_13_2">
<rect width="4" height="4" fill="white"/>
</clipPath>
</defs>
</svg>
