<svg width="6" height="6" viewBox="0 0 6 6" fill="none" xmlns="http://www.w3.org/2000/svg">
<g clip-path="url(#clip0_23_28)">
<path d="M5.19082 2.87285C5.21191 2.80254 5.22246 2.72988 5.22246 2.65605C5.22246 2.49023 5.16797 2.33086 5.06953 2.20078C5.09063 2.13047 5.10117 2.05781 5.10117 1.98398C5.10117 1.81816 5.04668 1.65879 4.94824 1.52871C4.96934 1.4584 4.97988 1.38574 4.97988 1.31191C4.97988 1.00957 4.8 0.737108 4.52109 0.618163C4.47207 0.597027 4.41921 0.586255 4.36582 0.586522H0.84375C0.740039 0.586522 0.65625 0.670311 0.65625 0.774022V2.90683C0.65625 3.01055 0.740039 3.09433 0.84375 3.09433H1.60137L2.1041 4.91543C2.18496 5.20898 2.45449 5.41406 2.75918 5.41406C2.9332 5.41406 3.09551 5.34492 3.21562 5.21836C3.33574 5.09238 3.39727 4.92715 3.38848 4.75312L3.35332 4.03301H4.75898C4.82988 4.03301 4.89902 4.01426 4.95996 3.97851C5.19668 3.84082 5.34375 3.59121 5.34375 3.32812C5.34375 3.1623 5.28926 3.00293 5.19082 2.87285ZM1.07812 2.67187V1.00781H1.55273V2.67187H1.07812ZM4.75313 3.61172H2.91094L2.96719 4.77422C2.9707 4.84394 2.93965 4.90957 2.88164 4.95293C2.8459 4.9793 2.80195 4.99277 2.75801 4.99219C2.70186 4.99164 2.64741 4.9729 2.60283 4.93877C2.55824 4.90465 2.52593 4.85698 2.51074 4.80293L1.92773 2.69062V1.00781H4.36172C4.42029 1.03406 4.47002 1.07667 4.50495 1.13051C4.53988 1.18436 4.55851 1.24715 4.55859 1.31133C4.55859 1.36816 4.54512 1.42207 4.51816 1.47129L4.43672 1.62012L4.56504 1.73144C4.60116 1.76273 4.63011 1.80142 4.64993 1.8449C4.66975 1.88838 4.67996 1.93562 4.67988 1.9834C4.67988 2.04023 4.66641 2.09414 4.63945 2.14336L4.55801 2.29219L4.68633 2.40351C4.72245 2.4348 4.7514 2.47349 4.77122 2.51697C4.79104 2.56045 4.80125 2.60769 4.80117 2.65547C4.80117 2.7123 4.7877 2.76621 4.76074 2.81543L4.67871 2.96484L4.80703 3.07617C4.84315 3.10745 4.8721 3.14615 4.89192 3.18963C4.91174 3.2331 4.92195 3.28034 4.92188 3.32812C4.92188 3.44004 4.85742 3.54785 4.75313 3.61172Z" fill="black"/>
</g>
<defs>
<clipPath id="clip0_23_28">
<rect width="6" height="6" fill="white"/>
</clipPath>
</defs>
</svg>
