<svg width="3" height="3" viewBox="0 0 3 3" fill="none" xmlns="http://www.w3.org/2000/svg">
<g clip-path="url(#clip0_11_4)">
<path d="M1.43752 2.25C1.93752 2.25 2.37002 1.9725 2.59252 1.5625C2.37002 1.1525 1.93752 0.875 1.43752 0.875C0.937517 0.875 0.505017 1.1525 0.282517 1.5625C0.505017 1.9725 0.937517 2.25 1.43752 2.25ZM1.43752 0.75C2.00752 0.75 2.50002 1.08125 2.73252 1.5625C2.50002 2.04375 2.00752 2.375 1.43752 2.375C0.867517 2.375 0.375017 2.04375 0.142517 1.5625C0.375017 1.08125 0.867517 0.75 1.43752 0.75ZM1.43752 1C1.75002 1 2.00002 1.25 2.00002 1.5625C2.00002 1.875 1.75002 2.125 1.43752 2.125C1.12502 2.125 0.875017 1.875 0.875017 1.5625C0.875017 1.25 1.12502 1 1.43752 1ZM1.43752 1.125C1.32148 1.125 1.21021 1.17109 1.12816 1.25314C1.04611 1.33519 1.00002 1.44647 1.00002 1.5625C1.00002 1.67853 1.04611 1.78981 1.12816 1.87186C1.21021 1.95391 1.32148 2 1.43752 2C1.55355 2 1.66483 1.95391 1.74688 1.87186C1.82892 1.78981 1.87502 1.67853 1.87502 1.5625C1.87502 1.44647 1.82892 1.33519 1.74688 1.25314C1.66483 1.17109 1.55355 1.125 1.43752 1.125Z" fill="#757575"/>
</g>
<defs>
<clipPath id="clip0_11_4">
<rect width="3" height="3" fill="white"/>
</clipPath>
</defs>
</svg>
