<svg width="4" height="4" viewBox="0 0 4 4" fill="none" xmlns="http://www.w3.org/2000/svg">
<g clip-path="url(#clip0_17_2)">
<path d="M3.64531 0.15094H0.355002C0.242302 0.15094 0.15094 0.242302 0.15094 0.355002V3.64531C0.15094 3.75802 0.242302 3.84938 0.355002 3.84938H3.64531C3.75802 3.84938 3.84938 3.75802 3.84938 3.64531V0.355002C3.84938 0.242302 3.75802 0.15094 3.64531 0.15094Z" fill="#3D5A98"/>
<path d="M2.70247 3.84906V2.41687H3.1831L3.25497 1.85875H2.70247V1.5025C2.70247 1.34093 2.74747 1.23062 2.97904 1.23062H3.27466V0.730622C3.13151 0.71573 2.98765 0.708636 2.84372 0.709372C2.4181 0.709372 2.12497 0.968747 2.12497 1.44718V1.85875H1.64435V2.41687H2.12497V3.84906H2.70247Z" fill="white"/>
</g>
<defs>
<clipPath id="clip0_17_2">
<rect width="4" height="4" fill="white"/>
</clipPath>
</defs>
</svg>
