<svg width="4" height="4" viewBox="0 0 4 4" fill="none" xmlns="http://www.w3.org/2000/svg">
<g clip-path="url(#clip0_17_5)">
<path d="M3.0625 0H0.9375C0.419733 0 0 0.419733 0 0.9375V3.0625C0 3.58027 0.419733 4 0.9375 4H3.0625C3.58027 4 4 3.58027 4 3.0625V0.9375C4 0.419733 3.58027 0 3.0625 0Z" fill="url(#paint0_radial_17_5)"/>
<path d="M3.0625 0H0.9375C0.419733 0 0 0.419733 0 0.9375V3.0625C0 3.58027 0.419733 4 0.9375 4H3.0625C3.58027 4 4 3.58027 4 3.0625V0.9375C4 0.419733 3.58027 0 3.0625 0Z" fill="url(#paint1_radial_17_5)"/>
<path d="M2.00014 0.4375C1.5758 0.4375 1.52253 0.439359 1.35588 0.446938C1.18953 0.454563 1.07598 0.480891 0.976641 0.519531C0.873859 0.559437 0.786688 0.612828 0.699844 0.699703C0.612922 0.786562 0.559531 0.873734 0.5195 0.976469C0.48075 1.07584 0.454391 1.18944 0.446906 1.3557C0.439453 1.52237 0.4375 1.57566 0.4375 2.00002C0.4375 2.42438 0.439375 2.47747 0.446938 2.64412C0.454594 2.81047 0.480922 2.92402 0.519531 3.02336C0.559469 3.12614 0.612859 3.21331 0.699734 3.30016C0.786563 3.38708 0.873734 3.44059 0.976438 3.4805C1.07586 3.51914 1.18942 3.54547 1.35573 3.55309C1.52241 3.56067 1.57563 3.56253 1.99995 3.56253C2.42434 3.56253 2.47744 3.56067 2.64409 3.55309C2.81044 3.54547 2.92411 3.51914 3.02353 3.4805C3.12627 3.44059 3.21331 3.38708 3.30012 3.30016C3.38705 3.21331 3.44042 3.12614 3.48047 3.02341C3.51887 2.92402 3.54525 2.81044 3.55306 2.64416C3.56055 2.4775 3.5625 2.42438 3.5625 2.00002C3.5625 1.57566 3.56055 1.52241 3.55306 1.35573C3.54525 1.18939 3.51887 1.07586 3.48047 0.976516C3.44042 0.873734 3.38705 0.786562 3.30012 0.699703C3.21322 0.612797 3.1263 0.559406 3.02344 0.519547C2.92383 0.480891 2.81022 0.454547 2.64387 0.446938C2.4772 0.439359 2.42414 0.4375 1.99966 0.4375H2.00014ZM1.85997 0.719078C1.90158 0.719016 1.948 0.719078 2.00014 0.719078C2.41734 0.719078 2.46678 0.720578 2.63153 0.728063C2.78387 0.735031 2.86656 0.760484 2.92164 0.781875C2.99456 0.810188 3.04655 0.844047 3.1012 0.89875C3.15589 0.953438 3.18973 1.00552 3.21813 1.07844C3.23952 1.13344 3.265 1.21613 3.27194 1.36847C3.27942 1.53319 3.28105 1.58266 3.28105 1.99966C3.28105 2.41666 3.27942 2.46614 3.27194 2.63084C3.26497 2.78319 3.23952 2.86587 3.21813 2.92089C3.18981 2.99381 3.15589 3.04573 3.1012 3.10039C3.04652 3.15508 2.99459 3.18892 2.92164 3.21725C2.86663 3.23873 2.78387 3.26413 2.63153 3.27109C2.46681 3.27858 2.41734 3.2802 2.00014 3.2802C1.58292 3.2802 1.53347 3.27858 1.36877 3.27109C1.21642 3.26406 1.13373 3.23861 1.07861 3.21722C1.0057 3.18889 0.953609 3.15505 0.898922 3.10036C0.844234 3.04567 0.810391 2.99372 0.782 2.92077C0.760609 2.86575 0.735125 2.78306 0.728188 2.63072C0.720703 2.466 0.719203 2.41653 0.719203 1.99927C0.719203 1.582 0.720703 1.5328 0.728188 1.36808C0.735156 1.21573 0.760609 1.13305 0.782 1.07797C0.810328 1.00505 0.844234 0.952969 0.898938 0.898281C0.953641 0.843594 1.0057 0.809734 1.07862 0.781359C1.1337 0.759875 1.21642 0.734484 1.36877 0.727484C1.51291 0.720969 1.56877 0.719016 1.85997 0.718687V0.719078ZM2.8342 0.978516C2.73069 0.978516 2.6467 1.06242 2.6467 1.16595C2.6467 1.26947 2.73069 1.35345 2.8342 1.35345C2.93772 1.35345 3.0217 1.26947 3.0217 1.16595C3.0217 1.06244 2.93772 0.978453 2.8342 0.978453V0.978516ZM2.00014 1.19759C1.55702 1.19759 1.19773 1.55688 1.19773 2.00002C1.19773 2.44316 1.55702 2.80227 2.00014 2.80227C2.44328 2.80227 2.80244 2.44316 2.80244 2.00002C2.80244 1.55689 2.44325 1.19759 2.00011 1.19759H2.00014ZM2.00014 1.47917C2.28778 1.47917 2.52098 1.71234 2.52098 2.00002C2.52098 2.28766 2.28778 2.52086 2.00014 2.52086C1.7125 2.52086 1.47931 2.28766 1.47931 2.00002C1.47931 1.71234 1.71248 1.47917 2.00014 1.47917Z" fill="white"/>
</g>
<defs>
<radialGradient id="paint0_radial_17_5" cx="0" cy="0" r="1" gradientUnits="userSpaceOnUse" gradientTransform="translate(1.0625 4.30808) rotate(-90) scale(3.9643 3.68711)">
<stop stop-color="#FFDD55"/>
<stop offset="0.1" stop-color="#FFDD55"/>
<stop offset="0.5" stop-color="#FF543E"/>
<stop offset="1" stop-color="#C837AB"/>
</radialGradient>
<radialGradient id="paint1_radial_17_5" cx="0" cy="0" r="1" gradientUnits="userSpaceOnUse" gradientTransform="translate(-0.670016 0.288141) rotate(78.681) scale(1.77206 7.3045)">
<stop stop-color="#3771C8"/>
<stop offset="0.128" stop-color="#3771C8"/>
<stop offset="1" stop-color="#6600FF" stop-opacity="0"/>
</radialGradient>
<clipPath id="clip0_17_5">
<rect width="4" height="4" fill="white"/>
</clipPath>
</defs>
</svg>
