<svg width="5" height="5" viewBox="0 0 5 5" fill="none" xmlns="http://www.w3.org/2000/svg">
<g clip-path="url(#clip0_23_30)">
<path d="M0.339952 2.37375V4.163H1.09745L1.1357 4.1675C1.83895 4.3315 2.30495 4.44975 2.5372 4.523C2.8457 4.62025 2.9607 4.644 3.16995 4.658C3.32645 4.66875 3.5042 4.6085 3.5852 4.526C3.62995 4.4805 3.66345 4.387 3.6767 4.242C3.67942 4.21159 3.69028 4.18247 3.70814 4.1577C3.726 4.13294 3.7502 4.11344 3.7782 4.10125C3.84045 4.07425 3.8922 4.03025 3.93545 3.96625C3.97545 3.90775 4.00145 3.79875 4.0062 3.641C4.00699 3.61199 4.01519 3.58367 4.03003 3.55872C4.04486 3.53378 4.06584 3.51305 4.09095 3.4985C4.23645 3.41425 4.30845 3.31925 4.32345 3.20775C4.33995 3.0845 4.29995 2.94575 4.1952 2.78775C4.17062 2.7507 4.16147 2.70552 4.16969 2.66182C4.1779 2.61812 4.20284 2.57935 4.2392 2.55375C4.33945 2.48325 4.39445 2.38525 4.4082 2.24625C4.4302 2.02475 4.28895 1.861 3.9692 1.82825C3.68442 1.79998 3.39687 1.82395 3.1207 1.899C3.08937 1.90719 3.05636 1.90626 3.02554 1.89632C2.99472 1.88638 2.96738 1.86785 2.94674 1.8429C2.9261 1.81795 2.91301 1.78762 2.90902 1.75549C2.90502 1.72335 2.91029 1.69075 2.9242 1.6615C3.0492 1.397 3.1187 1.17875 3.13495 1.00975C3.1562 0.785505 3.10445 0.623005 2.98345 0.489005C2.8917 0.387505 2.74495 0.329505 2.68995 0.341505C2.61745 0.357005 2.5702 0.399005 2.5087 0.546005C2.47245 0.633005 2.45495 0.707005 2.42495 0.879755C2.3962 1.04375 2.38045 1.11775 2.3477 1.21475C2.24895 1.50875 2.0067 1.8135 1.68145 2.02375C1.45331 2.1706 1.20631 2.28581 0.947202 2.36625C0.930986 2.37116 0.914144 2.37369 0.897202 2.37375H0.339952ZM0.329452 4.50375C0.248702 4.506 0.176202 4.488 0.115452 4.4455C0.0379517 4.39125 0.00145174 4.30575 0.000701741 4.20725L0.00145174 2.3765C-0.00704826 2.279 0.0217017 2.1895 0.0897017 2.123C0.153452 2.0605 0.236702 2.031 0.324702 2.033H0.870952C1.09192 1.96261 1.30259 1.86325 1.49745 1.7375C1.75945 1.568 1.95245 1.325 2.0262 1.106C2.05145 1.0305 2.06495 0.968005 2.09045 0.821005C2.12495 0.623755 2.14645 0.532005 2.19595 0.414005C2.29845 0.168505 2.43295 0.0485046 2.61845 0.0082546C2.80095 -0.0312454 3.0667 0.0740046 3.2347 0.260005C3.42095 0.466005 3.5032 0.723755 3.4727 1.04225C3.45954 1.17892 3.4217 1.33259 3.3592 1.50325C3.57264 1.47213 3.78911 1.46742 4.0037 1.48925C4.50545 1.5405 4.7872 1.86725 4.7462 2.28025C4.7282 2.45825 4.6637 2.6095 4.55395 2.72825C4.6462 2.906 4.68295 3.08175 4.65995 3.25325C4.63345 3.45075 4.52345 3.61525 4.34045 3.743C4.3262 3.91625 4.28645 4.0545 4.21595 4.158C4.16023 4.24148 4.08779 4.31248 4.0032 4.3665C3.9762 4.5375 3.91945 4.67125 3.8267 4.76525C3.67295 4.92175 3.3982 5.015 3.1472 4.998C2.90895 4.982 2.76795 4.953 2.43545 4.848C2.2162 4.77875 1.7622 4.66375 1.07795 4.50375H0.329452ZM0.754702 2.296C0.754636 2.27364 0.758985 2.25148 0.767498 2.23079C0.776012 2.21011 0.788524 2.19131 0.804316 2.17547C0.820109 2.15963 0.838872 2.14707 0.85953 2.13849C0.880188 2.12992 0.902335 2.1255 0.924702 2.1255C0.947026 2.12557 0.96912 2.13003 0.98972 2.13864C1.01032 2.14724 1.02902 2.15982 1.04476 2.17565C1.0605 2.19148 1.07297 2.21026 1.08145 2.23091C1.08994 2.25156 1.09427 2.27368 1.0942 2.296V4.2155C1.09423 4.23783 1.08987 4.25994 1.08136 4.28058C1.07284 4.30122 1.06035 4.31998 1.04459 4.33579C1.02882 4.3516 1.0101 4.36415 0.989489 4.37272C0.968876 4.38129 0.946776 4.38572 0.924452 4.38575C0.902127 4.38572 0.880027 4.38129 0.859415 4.37272C0.838802 4.36415 0.82008 4.3516 0.804317 4.33579C0.788554 4.31998 0.776059 4.30122 0.767546 4.28058C0.759034 4.25994 0.754669 4.23783 0.754702 4.2155V2.296Z" fill="black"/>
</g>
<defs>
<clipPath id="clip0_23_30">
<rect width="5" height="5" fill="white"/>
</clipPath>
</defs>
</svg>
