<svg width="4" height="4" viewBox="0 0 4 4" fill="none" xmlns="http://www.w3.org/2000/svg">
<g clip-path="url(#clip0_17_23)">
<path d="M2 0C1.46969 0 0.960625 0.210844 0.585938 0.585781C0.210866 0.960869 0.000107328 1.46956 0 2C0 2.53022 0.210938 3.03928 0.585938 3.41422C0.960625 3.78916 1.46969 4 2 4C2.53031 4 3.03938 3.78916 3.41406 3.41422C3.78906 3.03928 4 2.53022 4 2C4 1.46978 3.78906 0.960719 3.41406 0.585781C3.03938 0.210844 2.53031 0 2 0Z" fill="url(#paint0_linear_17_23)"/>
<path d="M0.905328 1.97888C1.48845 1.72488 1.8772 1.55742 2.07158 1.47651C2.6272 1.24548 2.74251 1.20535 2.81783 1.20399C2.83439 1.20373 2.87127 1.20782 2.89533 1.22727C2.91533 1.24368 2.92095 1.26587 2.92376 1.28144C2.92626 1.29701 2.9297 1.33248 2.92689 1.36016C2.89689 1.67641 2.76658 2.44385 2.70033 2.79807C2.67252 2.94794 2.6172 2.99819 2.56377 3.0031C2.44752 3.01379 2.35939 2.92635 2.24689 2.85263C2.07095 2.73723 1.97158 2.66541 1.80064 2.55282C1.60314 2.42269 1.73127 2.35116 1.84377 2.23429C1.87314 2.20369 2.38502 1.73823 2.3947 1.69601C2.39595 1.69073 2.3972 1.67104 2.38533 1.66066C2.37377 1.65026 2.35658 1.65382 2.34408 1.65663C2.32627 1.66063 2.04533 1.84651 1.50033 2.21423C1.42064 2.26904 1.34845 2.29576 1.28345 2.29435C1.2122 2.29282 1.0747 2.25398 0.972515 2.22079C0.847515 2.18007 0.747828 2.15854 0.756578 2.08938C0.760953 2.05338 0.81064 2.01654 0.905328 1.97888Z" fill="white"/>
</g>
<defs>
<linearGradient id="paint0_linear_17_23" x1="200" y1="0" x2="200" y2="400" gradientUnits="userSpaceOnUse">
<stop stop-color="#2AABEE"/>
<stop offset="1" stop-color="#229ED9"/>
</linearGradient>
<clipPath id="clip0_17_23">
<rect width="4" height="4" fill="white"/>
</clipPath>
</defs>
</svg>
