<svg width="4" height="4" viewBox="0 0 4 4" fill="none" xmlns="http://www.w3.org/2000/svg">
<g clip-path="url(#clip0_17_10)">
<path d="M3.0625 0H0.9375C0.419733 0 0 0.419733 0 0.9375V3.0625C0 3.58027 0.419733 4 0.9375 4H3.0625C3.58027 4 4 3.58027 4 3.0625V0.9375C4 0.419733 3.58027 0 3.0625 0Z" fill="white"/>
<path d="M3.0625 0H0.9375C0.419733 0 0 0.419733 0 0.9375V3.0625C0 3.58027 0.419733 4 0.9375 4H3.0625C3.58027 4 4 3.58027 4 3.0625V0.9375C4 0.419733 3.58027 0 3.0625 0Z" fill="#1D9BF0"/>
<path d="M3.11831 1.4283C3.12003 1.45309 3.12003 1.47789 3.12003 1.50292C3.12003 2.26537 2.53959 3.14472 1.47823 3.14472V3.14425C1.16469 3.1447 0.857641 3.0549 0.59375 2.88558C0.639365 2.89105 0.685146 2.89382 0.731094 2.89391C0.990969 2.89412 1.24337 2.80695 1.44773 2.64642C1.32733 2.64414 1.21064 2.60429 1.11399 2.53245C1.01734 2.4606 0.945548 2.36036 0.908656 2.24572C0.995105 2.26239 1.08423 2.25899 1.16916 2.23578C0.899969 2.18139 0.706297 1.94487 0.706297 1.67019V1.66287C0.786544 1.70757 0.876356 1.73234 0.968172 1.73509C0.714641 1.56564 0.636484 1.22834 0.789578 0.964624C0.934433 1.1429 1.11517 1.2887 1.32006 1.39256C1.52495 1.49643 1.74939 1.55602 1.97881 1.56747C1.95594 1.46901 1.95932 1.36626 1.98861 1.26952C2.0179 1.17277 2.07208 1.08541 2.14573 1.01617C2.37814 0.797702 2.74366 0.808906 2.96213 1.04119C3.09134 1.01568 3.21526 0.968304 3.32855 0.901109C3.28547 1.03471 3.19533 1.14812 3.07489 1.22023C3.18927 1.20674 3.30098 1.17613 3.40625 1.12941C3.32882 1.24538 3.23131 1.34659 3.11831 1.4283Z" fill="white"/>
</g>
<defs>
<clipPath id="clip0_17_10">
<rect width="4" height="4" fill="white"/>
</clipPath>
</defs>
</svg>
