<svg width="5" height="4" viewBox="0 0 5 4" fill="none" xmlns="http://www.w3.org/2000/svg">
<g clip-path="url(#clip0_17_18)">
<path d="M4.88957 0.623889C4.86089 0.503301 4.80495 0.393365 4.72732 0.305028C4.64968 0.216692 4.55306 0.153036 4.44707 0.1204C4.05907 0 2.49746 0 2.49746 0C2.49746 0 0.935785 0.00364443 0.547777 0.124044C0.441791 0.156682 0.345168 0.220341 0.267532 0.308682C0.189895 0.397023 0.133953 0.506964 0.105277 0.627556C-0.0120861 1.41196 -0.0576134 2.6072 0.1085 3.36022C0.137179 3.48081 0.193122 3.59075 0.270759 3.67908C0.348395 3.76742 0.445016 3.83108 0.551 3.86371C0.939008 3.98411 2.50065 3.98411 2.50065 3.98411C2.50065 3.98411 4.06227 3.98411 4.45026 3.86371C4.55625 3.83108 4.65287 3.76742 4.73051 3.67909C4.80815 3.59075 4.8641 3.48081 4.89278 3.36022C5.01657 2.57471 5.05471 1.3802 4.88957 0.623889Z" fill="#FF0000"/>
<path d="M2.00043 2.84577L3.2959 1.99204L2.00043 1.13831V2.84577Z" fill="white"/>
</g>
<defs>
<clipPath id="clip0_17_18">
<rect width="5" height="4" fill="white"/>
</clipPath>
</defs>
</svg>
